HIERARCHY
ROOT Hips
{
	OFFSET 0.000000 0.000000 0.000000
	CHANNELS 6 Xposition Yposition Zposition Xrotation Yrotation Zrotation
	JOINT LeftUpLeg_virtual
	{
		OFFSET 0.000000 0.000000 0.000000
		CHANNELS 3 Xrotation Yrotation Zrotation
		JOINT LeftUpLeg
		{
			OFFSET 15.427100 -6.655098 0.678600
			CHANNELS 3 Xrotation Yrotation Zrotation
			JOINT LeftLeg
			{
				OFFSET 4.081073 -39.591068 13.024000
				CHANNELS 3 Xrotation Yrotation Zrotation
				JOINT LeftFoot
				{
					OFFSET -4.081074 -37.707932 -15.979700
					CHANNELS 3 Xrotation Yrotation Zrotation
					JOINT LeftToeBase
					{
						OFFSET 5.346399 -15.068900 20.645000
						CHANNELS 3 Xrotation Yrotation Zrotation
						JOINT LeftToe_End
						{
							OFFSET 2.754700 0.931300 11.300900
							CHANNELS 3 Xrotation Yrotation Zrotation
							End Site
							{
								OFFSET 0 0 0
							}
						}
					}
				}
			}
		}
	}
	JOINT RightUpLeg_virtual
	{
		OFFSET 0.000000 0.000000 0.000000
		CHANNELS 3 Xrotation Yrotation Zrotation
		JOINT RightUpLeg
		{
			OFFSET -15.569500 -6.655098 0.678600
			CHANNELS 3 Xrotation Yrotation Zrotation
			JOINT RightLeg
			{
				OFFSET -4.081825 -39.591045 13.023800
				CHANNELS 3 Xrotation Yrotation Zrotation
				JOINT RightFoot
				{
					OFFSET 4.081824 -37.707954 -15.979600
					CHANNELS 3 Xrotation Yrotation Zrotation
					JOINT RightToeBase
					{
						OFFSET -5.346400 -15.068900 20.645000
						CHANNELS 3 Xrotation Yrotation Zrotation
						JOINT RightToe_End
						{
							OFFSET -2.754700 0.931300 11.300900
							CHANNELS 3 Xrotation Yrotation Zrotation
							End Site
							{
								OFFSET 0 0 0
							}
						}
					}
				}
			}
		}
	}
	JOINT Spine_virtual
	{
		OFFSET 0.000000 0.000000 0.000000
		CHANNELS 3 Xrotation Yrotation Zrotation
		JOINT Spine
		{
			OFFSET -0.279200 12.230698 -2.892100
			CHANNELS 3 Xrotation Yrotation Zrotation
			JOINT Spine1
			{
				OFFSET -0.232667 10.192268 -1.242267
				CHANNELS 3 Xrotation Yrotation Zrotation
				JOINT Spine1_split
				{
					OFFSET -0.232667 10.192268 -1.242267
					CHANNELS 3 Xrotation Yrotation Zrotation
					JOINT Spine2
					{
						OFFSET -0.232667 10.192268 -1.242267
						CHANNELS 3 Xrotation Yrotation Zrotation
						JOINT Neck_virtual
						{
							OFFSET 0.000000 0.000000 0.000000
							CHANNELS 3 Xrotation Yrotation Zrotation
							JOINT Neck
							{
								OFFSET -0.418800 17.814194 8.416900
								CHANNELS 3 Xrotation Yrotation Zrotation
								JOINT Head
								{
									OFFSET 0.000000 7.031097 3.806800
									CHANNELS 3 Xrotation Yrotation Zrotation
									JOINT HeadTop_End
									{
										OFFSET 0.000000 24.646606 12.978600
										CHANNELS 3 Xrotation Yrotation Zrotation
										End Site
										{
											OFFSET 0 0 0
										}
									}
								}
							}
						}
						JOINT LeftShoulder_virtual
						{
							OFFSET 0.000000 0.000000 0.000000
							CHANNELS 3 Xrotation Yrotation Zrotation
							JOINT LeftShoulder
							{
								OFFSET 8.476499 7.247704 -3.868750
								CHANNELS 3 Xrotation Yrotation Zrotation
								JOINT LeftShoulder_split
								{
									OFFSET 8.476499 7.247704 -3.868750
									CHANNELS 3 Xrotation Yrotation Zrotation
									JOINT LeftArm
									{
										OFFSET 9.308998 -2.777710 0.208600
										CHANNELS 3 Xrotation Yrotation Zrotation
										JOINT LeftForeArm
										{
											OFFSET 29.972298 0.000000 0.000000
											CHANNELS 3 Xrotation Yrotation Zrotation
											JOINT LeftHand
											{
												OFFSET 26.026505 0.000000 0.000000
												CHANNELS 3 Xrotation Yrotation Zrotation
												End Site
												{
													OFFSET 0 0 0
												}
											}
										}
									}
								}
							}
						}
						JOINT RightShoulder_virtual
						{
							OFFSET 0.000000 0.000000 0.000000
							CHANNELS 3 Xrotation Yrotation Zrotation
							JOINT RightShoulder
							{
								OFFSET -7.570500 7.247704 -3.868750
								CHANNELS 3 Xrotation Yrotation Zrotation
								JOINT RightShoulder_split
								{
									OFFSET -7.570500 7.247704 -3.868750
									CHANNELS 3 Xrotation Yrotation Zrotation
									JOINT RightArm
									{
										OFFSET -9.308998 -2.777710 0.208500
										CHANNELS 3 Xrotation Yrotation Zrotation
										JOINT RightForeArm
										{
											OFFSET -29.972300 0.000000 0.000000
											CHANNELS 3 Xrotation Yrotation Zrotation
											JOINT RightHand
											{
												OFFSET -26.026505 0.000000 0.000000
												CHANNELS 3 Xrotation Yrotation Zrotation
												End Site
												{
													OFFSET 0 0 0
												}
											}
										}
									}
								}
							}
						}
					}
				}
			}
		}
	}
}
MOTION
Frames: 11
Frame Time: 0.03333333
2.901233 86.149681 1.714287 0.000000 0.000000 0.000000 -10.387417 11.382313 -2.910125 -34.879836 26.086504 15.854932 38.960017 4.494438 5.862866 4.167305 -16.272456 -2.837178 -6.623327 2.444733 0.802485 0.000000 0.000000 0.000000 -10.023182 13.215500 -3.115484 -14.047012 -21.923792 -1.358732 26.680435 6.943840 1.087724 -3.016279 4.371031 2.872027 2.844245 -4.098757 -19.313337 0.000000 0.000000 0.000000 -10.199179 15.569239 -4.395797 5.954666 0.702492 5.478977 4.926455 1.028075 0.567051 0.078340 -0.191475 -0.025451 0.000000 0.000000 0.000000 3.963864 4.341311 0.990246 19.242992 7.649740 0.344484 5.303951 -58.029649 -7.073945 0.000000 0.000000 0.000000 3.769400 2.155810 -0.881890 2.596748 4.764208 -9.084652 3.977001 -1.784629 -0.673732 78.981869 -66.007727 5.710959 2.545907 -17.881215 8.828835 0.000000 0.000000 0.000000 4.999036 2.679885 0.692697 -3.163453 -9.304829 5.535511 6.651550 -1.967659 0.838776 10.648559 43.014619 59.978049 -1.136659 12.017110 -7.928342 0.000000 0.000000 0.000000 
2.913023 86.143074 1.720203 0.000000 0.000000 0.000000 -10.381141 11.330760 -2.878386 -34.849223 26.156863 15.860138 38.955820 4.486725 5.842979 4.133594 -16.262351 -2.843079 -6.617597 2.442250 0.819303 0.000000 0.000000 0.000000 -10.020803 13.149545 -3.082308 -14.128087 -21.760052 -1.394651 26.714600 6.941260 1.083322 -3.006028 4.344637 2.866709 2.877718 -4.106759 -19.261005 0.000000 0.000000 0.000000 -10.197801 15.511716 -4.363232 5.941103 0.707587 5.477362 4.913891 1.038093 0.561794 0.078529 -0.190645 -0.025651 0.000000 0.000000 0.000000 3.944512 4.353631 0.987417 19.252787 7.656764 0.319356 5.286890 -58.016952 -7.104152 0.000000 0.000000 0.000000 3.755031 2.165399 -0.885485 2.593337 4.759993 -9.126012 4.003736 -1.771601 -0.670290 78.822869 -65.942041 5.618325 2.606922 -17.971853 8.878911 0.000000 0.000000 0.000000 4.981849 2.691933 0.690354 -3.172691 -9.292693 5.485809 6.657834 -1.964321 0.852401 10.646239 43.010125 59.969689 -1.123191 12.016391 -7.914299 0.000000 0.000000 0.000000 
2.920553 86.130058 1.724537 0.000000 0.000000 0.000000 -10.377446 11.279902 -2.841559 -34.815909 26.207530 15.858511 38.951964 4.477685 5.819926 4.105550 -16.247244 -2.836731 -6.616790 2.443585 0.823428 0.000000 0.000000 0.000000 -10.022631 13.085444 -3.043647 -14.227245 -21.591083 -1.446189 26.773566 6.951414 1.085074 -2.985793 4.341883 2.870811 2.876470 -4.108514 -19.210667 0.000000 0.000000 0.000000 -10.204911 15.464434 -4.322680 5.929767 0.710336 5.467839 4.903539 1.042998 0.557865 0.078690 -0.189861 -0.026473 0.000000 0.000000 0.000000 3.926001 4.361251 0.985181 19.281884 7.659873 0.293944 5.270670 -57.979741 -7.153607 0.000000 0.000000 0.000000 3.745184 2.169283 -0.887674 2.587810 4.751213 -9.163774 4.040613 -1.761752 -0.665169 78.564203 -65.877543 5.441942 2.668573 -18.069479 8.927805 0.000000 0.000000 0.000000 4.968296 2.699613 0.690234 -3.177581 -9.272398 5.461496 6.665191 -1.962674 0.860492 10.688509 42.995344 59.911954 -1.091888 12.058298 -7.907215 0.000000 0.000000 0.000000 
2.922866 86.108963 1.726463 0.000000 0.000000 0.000000 -10.377602 11.235071 -2.801619 -34.787864 26.236114 15.854752 38.956926 4.464338 5.795055 4.088108 -16.229744 -2.819948 -6.621000 2.449459 0.812966 0.000000 0.000000 0.000000 -10.028509 13.033189 -3.001932 -14.339922 -21.434479 -1.515399 26.857287 6.977256 1.094633 -2.961657 4.368663 2.891826 2.841908 -4.103109 -19.171192 0.000000 0.000000 0.000000 -10.220810 15.432777 -4.276472 5.920679 0.710711 5.450400 4.896308 1.042846 0.555518 0.078902 -0.189943 -0.027337 0.000000 0.000000 0.000000 3.908944 4.364069 0.983673 19.332483 7.656873 0.271991 5.248011 -57.932380 -7.217503 0.000000 0.000000 0.000000 3.739527 2.168353 -0.888396 2.580863 4.739756 -9.193849 4.086798 -1.759482 -0.658203 78.245233 -65.819719 5.207478 2.729097 -18.165269 8.973224 0.000000 0.000000 0.000000 4.958909 2.703150 0.692374 -3.178761 -9.249557 5.462481 6.674381 -1.956789 0.863269 10.770181 42.971934 59.819008 -1.042819 12.130337 -7.906590 0.000000 0.000000 0.000000 
2.919319 86.082207 1.727791 0.000000 0.000000 0.000000 -10.380980 11.203028 -2.761309 -34.770799 26.244882 15.852464 38.974849 4.447619 5.768795 4.081208 -16.211717 -2.794114 -6.625180 2.459512 0.789435 0.000000 0.000000 0.000000 -10.036131 12.999818 -2.961293 -14.452206 -21.302436 -1.597577 26.958632 7.013625 1.112496 -2.940802 4.421031 2.933985 2.786490 -4.091447 -19.148244 0.000000 0.000000 0.000000 -10.244369 15.417892 -4.229123 5.913565 0.708637 5.427781 4.891922 1.039292 0.555290 0.078713 -0.189775 -0.028351 0.000000 0.000000 0.000000 3.893729 4.363248 0.983365 19.404257 7.646372 0.254829 5.211153 -57.885949 -7.293262 0.000000 0.000000 0.000000 3.736523 2.164739 -0.887211 2.573388 4.727621 -9.214064 4.136696 -1.764443 -0.652938 77.910848 -65.770173 4.947374 2.786249 -18.252221 9.013262 0.000000 0.000000 0.000000 4.953847 2.704091 0.696413 -3.177588 -9.229029 5.487648 6.686278 -1.945399 0.861843 10.883433 42.939989 59.701003 -0.976940 12.220557 -7.911004 0.000000 0.000000 0.000000 
2.911427 86.052979 1.726410 0.000000 0.000000 0.000000 -10.386053 11.187953 -2.724491 -34.766144 26.239215 15.854573 39.002043 4.428898 5.742505 4.083134 -16.193388 -2.762815 -6.621424 2.473222 0.756022 0.000000 0.000000 0.000000 -10.043143 12.992736 -2.925617 -14.549763 -21.198751 -1.682612 27.064507 7.050896 1.138144 -2.930292 4.486526 2.988813 2.730802 -4.076579 -19.142114 0.000000 0.000000 0.000000 -10.272186 15.417057 -4.185645 5.907589 0.704391 5.403928 4.890094 1.034106 0.557606 0.078172 -0.189466 -0.028067 0.000000 0.000000 0.000000 3.881247 4.360588 0.984838 19.493298 7.627122 0.241776 5.151555 -57.852563 -7.379939 0.000000 0.000000 0.000000 3.734544 2.160722 -0.883714 2.566824 4.718684 -9.224888 4.183534 -1.778662 -0.654225 77.598005 -65.725394 4.694534 2.836663 -18.326733 9.045169 0.000000 0.000000 0.000000 4.952098 2.704018 0.702318 -3.174874 -9.214518 5.532896 6.697493 -1.928771 0.859187 11.022540 42.897263 59.563238 -0.898470 12.324452 -7.918613 0.000000 0.000000 0.000000 
2.900635 86.025497 1.722839 0.000000 0.000000 0.000000 -10.391698 11.194736 -2.694476 -34.775519 26.225386 15.861718 39.031126 4.409971 5.717622 4.088869 -16.176511 -2.732348 -6.609004 2.488864 0.719383 0.000000 0.000000 0.000000 -10.045747 13.013432 -2.897927 -14.621294 -21.121267 -1.759015 27.155078 7.077740 1.169646 -2.937868 4.547833 3.044323 2.692891 -4.061991 -19.148907 0.000000 0.000000 0.000000 -10.297068 15.431945 -4.151489 5.900797 0.697973 5.383282 4.888643 1.029612 0.562193 0.077393 -0.188508 -0.027758 0.000000 0.000000 0.000000 3.871972 4.358294 0.988534 19.591750 7.599642 0.229517 5.066902 -57.835392 -7.474244 0.000000 0.000000 0.000000 3.732187 2.158622 -0.877651 2.562661 4.716413 -9.229854 4.214235 -1.788891 -0.669047 77.331614 -65.680602 4.474650 2.875602 -18.388812 9.066874 0.000000 0.000000 0.000000 4.951197 2.704686 0.709870 -3.171905 -9.207187 5.592192 6.707332 -1.904930 0.861285 11.184643 42.842566 59.408767 -0.811485 12.438060 -7.927116 0.000000 0.000000 0.000000 
2.888426 86.004578 1.717106 0.000000 0.000000 0.000000 -10.394350 11.217794 -2.674126 -34.792389 26.212570 15.871959 39.050544 4.392913 5.696376 4.095243 -16.163117 -2.706204 -6.594523 2.504161 0.688174 0.000000 0.000000 0.000000 -10.042803 13.058254 -2.879469 -14.659008 -21.064087 -1.817599 27.212766 7.085191 1.203281 -2.961061 4.592889 3.090206 2.681137 -4.049862 -19.162562 0.000000 0.000000 0.000000 -10.312129 15.457949 -4.130548 5.892339 0.689724 5.369605 4.885820 1.027538 0.568787 0.076444 -0.186959 -0.026964 0.000000 0.000000 0.000000 3.866249 4.358082 0.995032 19.692438 7.565781 0.215911 4.965526 -57.837878 -7.568843 0.000000 0.000000 0.000000 3.727608 2.160020 -0.869744 2.561860 4.723818 -9.233658 4.227819 -1.796292 -0.694993 77.119522 -65.628692 4.300644 2.900828 -18.446611 9.078547 0.000000 0.000000 0.000000 4.949105 2.707493 0.718676 -3.168889 -9.207509 5.659435 6.715322 -1.882695 0.867649 11.367072 42.776908 59.238258 -0.721924 12.556242 -7.934589 0.000000 0.000000 0.000000 
2.877535 85.992523 1.710262 0.000000 0.000000 0.000000 -10.392642 11.252959 -2.663582 -34.812614 26.206073 15.885085 39.054837 4.377123 5.682215 4.102971 -16.156287 -2.690175 -6.581789 2.517220 0.667964 0.000000 0.000000 0.000000 -10.033182 13.116070 -2.869407 -14.670148 -21.019873 -1.854705 27.225776 7.074374 1.233746 -2.991722 4.615518 3.122253 2.699758 -4.043285 -19.177359 0.000000 0.000000 0.000000 -10.314668 15.491882 -4.122604 5.882587 0.680068 5.364749 4.879623 1.029280 0.576638 0.075657 -0.186544 -0.026220 0.000000 0.000000 0.000000 3.863678 4.361094 1.004297 19.785757 7.528263 0.198895 4.862690 -57.858526 -7.651098 0.000000 0.000000 0.000000 3.719663 2.165654 -0.861028 2.564384 4.742722 -9.242222 4.217208 -1.800063 -0.730141 76.962913 -65.564092 4.176217 2.913771 -18.507774 9.082221 0.000000 0.000000 0.000000 4.943573 2.712949 0.728394 -3.165705 -9.214620 5.727663 6.723797 -1.861120 0.880016 11.562085 42.704252 59.061213 -0.636954 12.669857 -7.939268 0.000000 0.000000 0.000000 
2.868737 85.991341 1.705990 0.000000 0.000000 0.000000 -10.384711 11.287667 -2.661375 -34.827917 26.209178 15.897079 39.043158 4.363347 5.676260 4.111965 -16.158032 -2.686382 -6.575985 2.526607 0.662186 0.000000 0.000000 0.000000 -10.017906 13.171021 -2.866081 -14.664753 -20.985679 -1.873689 27.200108 7.050892 1.257926 -3.012983 4.618246 3.147537 2.743855 -4.043579 -19.187936 0.000000 0.000000 0.000000 -10.306317 15.527352 -4.125224 5.872404 0.668770 5.367873 4.868657 1.034904 0.585022 0.075117 -0.187785 -0.026374 0.000000 0.000000 0.000000 3.862583 4.367389 1.015958 19.867072 7.490539 0.178752 4.779988 -57.892752 -7.704326 0.000000 0.000000 0.000000 3.707957 2.175118 -0.853141 2.569927 4.771815 -9.259342 4.188900 -1.803804 -0.766563 76.845502 -65.486918 4.084524 2.920018 -18.577824 9.082935 0.000000 0.000000 0.000000 4.933991 2.721155 0.738473 -3.162092 -9.226405 5.790704 6.726337 -1.843621 0.892990 11.757978 42.630312 58.888901 -0.562597 12.766016 -7.939409 0.000000 0.000000 0.000000 
2.862239 86.000839 1.701954 0.000000 0.000000 0.000000 -10.370033 11.315878 -2.664878 -34.834559 26.223343 15.905695 39.020010 4.353826 5.680430 4.121200 -16.166668 -2.691933 -6.573539 2.532229 0.667152 0.000000 0.000000 0.000000 -10.000107 13.210780 -2.866636 -14.654272 -20.959340 -1.876489 27.143339 7.024282 1.273086 -3.013804 4.610455 3.173222 2.802646 -4.051600 -19.191076 0.000000 0.000000 0.000000 -10.290865 15.555689 -4.135159 5.863012 0.655881 5.377174 4.852152 1.043396 0.593541 0.074853 -0.191615 -0.026541 0.000000 0.000000 0.000000 3.861044 4.376309 1.029302 19.934732 7.457160 0.156801 4.730741 -57.935775 -7.718945 0.000000 0.000000 0.000000 3.693025 2.187110 -0.846625 2.577725 4.810222 -9.286618 4.151066 -1.809899 -0.799033 76.750904 -65.401206 4.008857 2.929151 -18.656177 9.086150 0.000000 0.000000 0.000000 4.920261 2.731573 0.748256 -3.158367 -9.240478 5.841483 6.723581 -1.826112 0.903211 11.934784 42.563570 58.736464 -0.505996 12.833170 -7.934737 0.000000 0.000000 0.000000 
